<svg xmlns="http://www.w3.org/2000/svg" xmlns:xlink="http://www.w3.org/1999/xlink" width="500" zoomAndPan="magnify" viewBox="0 0 375 374.999991" height="500" preserveAspectRatio="xMidYMid meet" version="1.0"><defs><g/><clipPath id="3696882ac7"><path d="M 125.195312 110.03125 L 249.695312 110.03125 L 249.695312 199.28125 L 125.195312 199.28125 Z M 125.195312 110.03125 " clip-rule="nonzero"/></clipPath></defs><g fill="#000000" fill-opacity="1"><g transform="translate(8.707035, 236.170487)"><g><path d="M 9.96875 -10.046875 C 9.507812 -10.046875 8.863281 -10.082031 8.03125 -10.15625 L 8.03125 -1.796875 L 11.515625 -1.078125 C 11.585938 -0.617188 11.53125 -0.195312 11.34375 0.1875 C 9.175781 0.0625 7.472656 0 6.234375 0 C 5.171875 0 3.523438 0.0625 1.296875 0.1875 C 1.222656 -0.269531 1.25 -0.691406 1.375 -1.078125 C 2.6875 -1.242188 3.644531 -1.484375 4.25 -1.796875 L 4.25 -23.40625 L 1.46875 -24.125 C 1.40625 -24.570312 1.46875 -24.988281 1.65625 -25.375 C 3.8125 -25.257812 5.273438 -25.203125 6.046875 -25.203125 C 6.835938 -25.203125 7.757812 -25.253906 8.8125 -25.359375 C 9.875 -25.472656 10.570312 -25.53125 10.90625 -25.53125 C 13.882812 -25.53125 16.21875 -24.867188 17.90625 -23.546875 C 19.601562 -22.222656 20.453125 -20.398438 20.453125 -18.078125 C 20.453125 -16.660156 20.148438 -15.421875 19.546875 -14.359375 C 18.941406 -13.304688 18.128906 -12.46875 17.109375 -11.84375 C 16.097656 -11.21875 14.988281 -10.757812 13.78125 -10.46875 C 12.582031 -10.1875 11.3125 -10.046875 9.96875 -10.046875 Z M 10.65625 -23.90625 C 9.8125 -23.90625 8.9375 -23.796875 8.03125 -23.578125 L 8.03125 -11.921875 C 8.800781 -11.773438 9.546875 -11.703125 10.265625 -11.703125 C 12.203125 -11.703125 13.738281 -12.222656 14.875 -13.265625 C 16.019531 -14.304688 16.59375 -15.835938 16.59375 -17.859375 C 16.59375 -19.679688 16.03125 -21.144531 14.90625 -22.25 C 13.78125 -23.351562 12.363281 -23.90625 10.65625 -23.90625 Z M 10.65625 -23.90625 "/></g></g></g><g fill="#000000" fill-opacity="1"><g transform="translate(29.947074, 236.170487)"><g><path d="M 1.296875 -9 C 1.296875 -12 2.171875 -14.375 3.921875 -16.125 C 5.671875 -17.875 7.820312 -18.738281 10.375 -18.71875 C 13.15625 -18.71875 15.359375 -17.789062 16.984375 -15.9375 C 18.617188 -14.09375 19.4375 -11.78125 19.4375 -9 C 19.4375 -5.945312 18.570312 -3.554688 16.84375 -1.828125 C 15.113281 -0.109375 12.957031 0.738281 10.375 0.71875 C 7.507812 0.71875 5.28125 -0.203125 3.6875 -2.046875 C 2.09375 -3.898438 1.296875 -6.21875 1.296875 -9 Z M 15.546875 -8.5 C 15.597656 -10.78125 15.191406 -12.796875 14.328125 -14.546875 C 13.460938 -16.296875 12.117188 -17.171875 10.296875 -17.171875 C 8.515625 -17.171875 7.207031 -16.394531 6.375 -14.84375 C 5.550781 -13.300781 5.15625 -11.269531 5.1875 -8.75 C 5.1875 -7.644531 5.285156 -6.613281 5.484375 -5.65625 C 5.691406 -4.695312 6.007812 -3.851562 6.4375 -3.125 C 6.875 -2.40625 7.421875 -1.84375 8.078125 -1.4375 C 8.742188 -1.03125 9.53125 -0.828125 10.4375 -0.828125 C 11.925781 -0.804688 13.148438 -1.40625 14.109375 -2.625 C 15.066406 -3.851562 15.546875 -5.8125 15.546875 -8.5 Z M 15.546875 -8.5 "/></g></g></g><g fill="#000000" fill-opacity="1"><g transform="translate(50.683114, 236.170487)"><g><path d="M 19.984375 1.015625 L 15.4375 -11.984375 L 10.984375 0.5 C 10.453125 0.769531 9.882812 0.925781 9.28125 0.96875 L 2.65625 -16.203125 L -0.109375 -16.921875 C -0.179688 -17.378906 -0.117188 -17.800781 0.078125 -18.1875 C 2.234375 -18.0625 3.695312 -18 4.46875 -18 C 5.257812 -18 6.769531 -18.0625 9 -18.1875 C 9.070312 -17.726562 9.046875 -17.304688 8.921875 -16.921875 C 7.609375 -16.628906 6.78125 -16.390625 6.4375 -16.203125 L 9.109375 -8.671875 C 9.710938 -6.972656 10.21875 -5.269531 10.625 -3.5625 L 10.734375 -3.5625 C 11.253906 -5.625 11.742188 -7.28125 12.203125 -8.53125 L 14.515625 -14.6875 L 14 -16.203125 L 11.234375 -16.921875 C 11.160156 -17.378906 11.21875 -17.800781 11.40625 -18.1875 C 13.257812 -18.0625 14.691406 -18 15.703125 -18 C 16.734375 -18 18.113281 -18.0625 19.84375 -18.1875 C 19.90625 -17.726562 19.878906 -17.304688 19.765625 -16.921875 C 18.441406 -16.660156 17.613281 -16.421875 17.28125 -16.203125 L 19.6875 -8.359375 C 20.507812 -5.734375 21.015625 -4.015625 21.203125 -3.203125 L 21.3125 -3.203125 C 21.570312 -4.398438 22.039062 -6.019531 22.71875 -8.0625 L 25.265625 -16.203125 L 22.5 -16.921875 C 22.425781 -17.378906 22.488281 -17.800781 22.6875 -18.1875 C 24.238281 -18.0625 25.4375 -18 26.28125 -18 C 27.070312 -18 28.34375 -18.0625 30.09375 -18.1875 C 30.164062 -17.726562 30.144531 -17.304688 30.03125 -16.921875 C 28.75 -16.703125 27.894531 -16.460938 27.46875 -16.203125 L 21.703125 0.5 C 21.148438 0.789062 20.578125 0.960938 19.984375 1.015625 Z M 19.984375 1.015625 "/></g></g></g><g fill="#000000" fill-opacity="1"><g transform="translate(80.635173, 236.170487)"><g><path d="M 5.140625 -9.71875 L 5.140625 -9 C 5.140625 -6.601562 5.625 -4.734375 6.59375 -3.390625 C 7.570312 -2.046875 8.898438 -1.375 10.578125 -1.375 C 11.660156 -1.375 12.523438 -1.472656 13.171875 -1.671875 C 13.816406 -1.878906 14.632812 -2.316406 15.625 -2.984375 C 16.007812 -2.816406 16.222656 -2.53125 16.265625 -2.125 C 14.609375 -0.320312 12.675781 0.585938 10.46875 0.609375 C 7.71875 0.609375 5.515625 -0.253906 3.859375 -1.984375 C 2.203125 -3.710938 1.359375 -6.050781 1.328125 -9 C 1.359375 -12.019531 2.226562 -14.375 3.9375 -16.0625 C 5.65625 -17.757812 7.773438 -18.609375 10.296875 -18.609375 C 12.335938 -18.609375 13.890625 -17.914062 14.953125 -16.53125 C 16.023438 -15.15625 16.5625 -13.289062 16.5625 -10.9375 C 16.5625 -10.53125 16.550781 -10.222656 16.53125 -10.015625 L 16.015625 -9.609375 Z M 10.265625 -17.0625 C 9.128906 -17.0625 8.085938 -16.550781 7.140625 -15.53125 C 6.191406 -14.507812 5.578125 -13.066406 5.296875 -11.203125 L 13.140625 -11.625 C 13.140625 -13.550781 12.925781 -14.9375 12.5 -15.78125 C 12.082031 -16.632812 11.335938 -17.0625 10.265625 -17.0625 Z M 10.265625 -17.0625 "/></g></g></g><g fill="#000000" fill-opacity="1"><g transform="translate(98.455214, 236.170487)"><g><path d="M 7.234375 -12.125 L 7.234375 -1.796875 L 10.734375 -1.078125 C 10.804688 -0.617188 10.742188 -0.195312 10.546875 0.1875 C 8.390625 0.0625 6.6875 0 5.4375 0 C 4.476562 0 3.015625 0.0625 1.046875 0.1875 C 0.972656 -0.269531 0.992188 -0.691406 1.109375 -1.078125 C 2.453125 -1.367188 3.296875 -1.609375 3.640625 -1.796875 L 3.640625 -15.84375 L 0.640625 -16.125 C 0.578125 -16.601562 0.640625 -17.023438 0.828125 -17.390625 C 2.816406 -17.671875 4.5 -17.992188 5.875 -18.359375 C 6.132812 -18.359375 6.53125 -18.226562 7.0625 -17.96875 L 7.0625 -14.6875 L 7.09375 -14.65625 C 8.863281 -17.289062 10.6875 -18.609375 12.5625 -18.609375 C 13.519531 -18.628906 14.3125 -18.453125 14.9375 -18.078125 C 15.007812 -16.296875 14.769531 -14.492188 14.21875 -12.671875 C 13.613281 -12.597656 13.070312 -12.644531 12.59375 -12.8125 L 12.09375 -16.421875 C 10.101562 -16.421875 8.484375 -14.988281 7.234375 -12.125 Z M 7.234375 -12.125 "/></g></g></g><g fill="#000000" fill-opacity="1"><g transform="translate(113.97125, 236.170487)"><g/></g></g><g fill="#000000" fill-opacity="1"><g transform="translate(122.503266, 236.170487)"><g><path d="M 9.96875 -10.046875 C 9.507812 -10.046875 8.863281 -10.082031 8.03125 -10.15625 L 8.03125 -1.796875 L 11.515625 -1.078125 C 11.585938 -0.617188 11.53125 -0.195312 11.34375 0.1875 C 9.175781 0.0625 7.472656 0 6.234375 0 C 5.171875 0 3.523438 0.0625 1.296875 0.1875 C 1.222656 -0.269531 1.25 -0.691406 1.375 -1.078125 C 2.6875 -1.242188 3.644531 -1.484375 4.25 -1.796875 L 4.25 -23.40625 L 1.46875 -24.125 C 1.40625 -24.570312 1.46875 -24.988281 1.65625 -25.375 C 3.8125 -25.257812 5.273438 -25.203125 6.046875 -25.203125 C 6.835938 -25.203125 7.757812 -25.253906 8.8125 -25.359375 C 9.875 -25.472656 10.570312 -25.53125 10.90625 -25.53125 C 13.882812 -25.53125 16.21875 -24.867188 17.90625 -23.546875 C 19.601562 -22.222656 20.453125 -20.398438 20.453125 -18.078125 C 20.453125 -16.660156 20.148438 -15.421875 19.546875 -14.359375 C 18.941406 -13.304688 18.128906 -12.46875 17.109375 -11.84375 C 16.097656 -11.21875 14.988281 -10.757812 13.78125 -10.46875 C 12.582031 -10.1875 11.3125 -10.046875 9.96875 -10.046875 Z M 10.65625 -23.90625 C 9.8125 -23.90625 8.9375 -23.796875 8.03125 -23.578125 L 8.03125 -11.921875 C 8.800781 -11.773438 9.546875 -11.703125 10.265625 -11.703125 C 12.203125 -11.703125 13.738281 -12.222656 14.875 -13.265625 C 16.019531 -14.304688 16.59375 -15.835938 16.59375 -17.859375 C 16.59375 -19.679688 16.03125 -21.144531 14.90625 -22.25 C 13.78125 -23.351562 12.363281 -23.90625 10.65625 -23.90625 Z M 10.65625 -23.90625 "/></g></g></g><g fill="#000000" fill-opacity="1"><g transform="translate(143.743304, 236.170487)"><g><path d="M 6.84375 -26.8125 L 6.84375 -1.796875 L 9.609375 -1.078125 C 9.679688 -0.617188 9.625 -0.195312 9.4375 0.1875 C 7.269531 0.0625 5.804688 0 5.046875 0 C 4.347656 0 2.878906 0.0625 0.640625 0.1875 C 0.578125 -0.269531 0.601562 -0.691406 0.71875 -1.078125 C 2.0625 -1.410156 2.898438 -1.648438 3.234375 -1.796875 L 3.234375 -24.703125 L 0.25 -24.984375 C 0.175781 -25.460938 0.238281 -25.882812 0.4375 -26.25 C 2.425781 -26.53125 4.101562 -26.851562 5.46875 -27.21875 C 5.875 -27.195312 6.332031 -27.0625 6.84375 -26.8125 Z M 6.84375 -26.8125 "/></g></g></g><g fill="#000000" fill-opacity="1"><g transform="translate(153.787325, 236.170487)"><g><path d="M 4.6875 -4.3125 C 4.6875 -3.351562 4.941406 -2.625 5.453125 -2.125 C 5.972656 -1.625 6.675781 -1.375 7.5625 -1.375 C 8.226562 -1.375 8.941406 -1.578125 9.703125 -1.984375 C 10.460938 -2.390625 11.03125 -2.867188 11.40625 -3.421875 L 11.40625 -8.28125 C 8.9375 -8.28125 7.195312 -7.984375 6.1875 -7.390625 C 5.1875 -6.804688 4.6875 -5.78125 4.6875 -4.3125 Z M 14.9375 -11.40625 L 14.9375 -1.765625 C 15.300781 -1.566406 16.140625 -1.328125 17.453125 -1.046875 C 17.523438 -0.585938 17.46875 -0.164062 17.28125 0.21875 C 16.394531 0.382812 15.382812 0.46875 14.25 0.46875 C 13.457031 0.46875 12.773438 0.394531 12.203125 0.25 L 11.703125 -1.625 L 11.5625 -1.625 C 10.113281 -0.132812 8.320312 0.609375 6.1875 0.609375 C 4.65625 0.609375 3.421875 0.207031 2.484375 -0.59375 C 1.546875 -1.394531 1.078125 -2.515625 1.078125 -3.953125 C 1.097656 -7.921875 4.539062 -9.84375 11.40625 -9.71875 L 11.453125 -12.890625 C 11.472656 -15.671875 10.414062 -17.070312 8.28125 -17.09375 C 7.007812 -17.09375 5.878906 -16.914062 4.890625 -16.5625 L 4.421875 -12.75 C 3.941406 -12.570312 3.414062 -12.519531 2.84375 -12.59375 C 2.34375 -14.425781 2.101562 -15.988281 2.125 -17.28125 C 4.113281 -18.238281 6.488281 -18.71875 9.25 -18.71875 C 11.3125 -18.738281 12.773438 -18.207031 13.640625 -17.125 C 14.503906 -16.050781 14.9375 -14.144531 14.9375 -11.40625 Z M 14.9375 -11.40625 "/></g></g></g><g fill="#000000" fill-opacity="1"><g transform="translate(171.643357, 236.170487)"><g><path d="M 7.375 0.578125 C 6.03125 0.578125 5.015625 0.191406 4.328125 -0.578125 C 3.648438 -1.347656 3.3125 -2.582031 3.3125 -4.28125 L 3.3125 -15.765625 L 0.796875 -15.765625 C 0.554688 -16.222656 0.492188 -16.765625 0.609375 -17.390625 C 1.953125 -17.367188 2.894531 -17.640625 3.4375 -18.203125 C 3.976562 -18.765625 4.476562 -19.957031 4.9375 -21.78125 L 6.84375 -21.78125 L 6.84375 -17.75 L 10.625 -17.75 C 10.957031 -17.050781 10.957031 -16.390625 10.625 -15.765625 L 6.84375 -15.765625 L 6.84375 -5.1875 C 6.84375 -3.570312 6.96875 -2.5 7.21875 -1.96875 C 7.46875 -1.445312 7.941406 -1.195312 8.640625 -1.21875 C 9.242188 -1.21875 9.960938 -1.457031 10.796875 -1.9375 C 11.128906 -1.726562 11.3125 -1.367188 11.34375 -0.859375 C 11.03125 -0.503906 10.519531 -0.175781 9.8125 0.125 C 9.101562 0.425781 8.289062 0.578125 7.375 0.578125 Z M 7.375 0.578125 "/></g></g></g><g fill="#000000" fill-opacity="1"><g transform="translate(183.271377, 236.170487)"><g><path d="M 11.765625 -22.3125 L 11.375 -25.484375 C 10.914062 -25.679688 10.445312 -25.78125 9.96875 -25.78125 C 8.09375 -25.726562 7.15625 -23.851562 7.15625 -20.15625 L 7.15625 -17.09375 L 12.203125 -17.09375 C 12.179688 -16.300781 12.0625 -15.703125 11.84375 -15.296875 L 7.15625 -15.296875 L 7.15625 -1.796875 L 10.65625 -1.078125 C 10.726562 -0.617188 10.664062 -0.195312 10.46875 0.1875 C 8.3125 0.0625 6.609375 0 5.359375 0 C 4.640625 0 3.175781 0.0625 0.96875 0.1875 C 0.894531 -0.269531 0.921875 -0.691406 1.046875 -1.078125 C 2.191406 -1.316406 3.03125 -1.554688 3.5625 -1.796875 L 3.5625 -15.296875 L 1.21875 -15.296875 C 1.195312 -15.535156 1.222656 -15.851562 1.296875 -16.25 C 1.367188 -16.644531 1.460938 -16.925781 1.578125 -17.09375 L 3.5625 -17.09375 L 3.5625 -19.265625 C 3.5625 -21.679688 4.117188 -23.601562 5.234375 -25.03125 C 6.347656 -26.46875 7.832031 -27.1875 9.6875 -27.1875 C 11.363281 -27.226562 12.78125 -26.863281 13.9375 -26.09375 C 13.769531 -24.632812 13.539062 -23.328125 13.25 -22.171875 C 12.71875 -22.097656 12.222656 -22.144531 11.765625 -22.3125 Z M 11.765625 -22.3125 "/></g></g></g><g fill="#000000" fill-opacity="1"><g transform="translate(195.943408, 236.170487)"><g><path d="M 1.296875 -9 C 1.296875 -12 2.171875 -14.375 3.921875 -16.125 C 5.671875 -17.875 7.820312 -18.738281 10.375 -18.71875 C 13.15625 -18.71875 15.359375 -17.789062 16.984375 -15.9375 C 18.617188 -14.09375 19.4375 -11.78125 19.4375 -9 C 19.4375 -5.945312 18.570312 -3.554688 16.84375 -1.828125 C 15.113281 -0.109375 12.957031 0.738281 10.375 0.71875 C 7.507812 0.71875 5.28125 -0.203125 3.6875 -2.046875 C 2.09375 -3.898438 1.296875 -6.21875 1.296875 -9 Z M 15.546875 -8.5 C 15.597656 -10.78125 15.191406 -12.796875 14.328125 -14.546875 C 13.460938 -16.296875 12.117188 -17.171875 10.296875 -17.171875 C 8.515625 -17.171875 7.207031 -16.394531 6.375 -14.84375 C 5.550781 -13.300781 5.15625 -11.269531 5.1875 -8.75 C 5.1875 -7.644531 5.285156 -6.613281 5.484375 -5.65625 C 5.691406 -4.695312 6.007812 -3.851562 6.4375 -3.125 C 6.875 -2.40625 7.421875 -1.84375 8.078125 -1.4375 C 8.742188 -1.03125 9.53125 -0.828125 10.4375 -0.828125 C 11.925781 -0.804688 13.148438 -1.40625 14.109375 -2.625 C 15.066406 -3.851562 15.546875 -5.8125 15.546875 -8.5 Z M 15.546875 -8.5 "/></g></g></g><g fill="#000000" fill-opacity="1"><g transform="translate(216.679449, 236.170487)"><g><path d="M 7.234375 -12.125 L 7.234375 -1.796875 L 10.734375 -1.078125 C 10.804688 -0.617188 10.742188 -0.195312 10.546875 0.1875 C 8.390625 0.0625 6.6875 0 5.4375 0 C 4.476562 0 3.015625 0.0625 1.046875 0.1875 C 0.972656 -0.269531 0.992188 -0.691406 1.109375 -1.078125 C 2.453125 -1.367188 3.296875 -1.609375 3.640625 -1.796875 L 3.640625 -15.84375 L 0.640625 -16.125 C 0.578125 -16.601562 0.640625 -17.023438 0.828125 -17.390625 C 2.816406 -17.671875 4.5 -17.992188 5.875 -18.359375 C 6.132812 -18.359375 6.53125 -18.226562 7.0625 -17.96875 L 7.0625 -14.6875 L 7.09375 -14.65625 C 8.863281 -17.289062 10.6875 -18.609375 12.5625 -18.609375 C 13.519531 -18.628906 14.3125 -18.453125 14.9375 -18.078125 C 15.007812 -16.296875 14.769531 -14.492188 14.21875 -12.671875 C 13.613281 -12.597656 13.070312 -12.644531 12.59375 -12.8125 L 12.09375 -16.421875 C 10.101562 -16.421875 8.484375 -14.988281 7.234375 -12.125 Z M 7.234375 -12.125 "/></g></g></g><g fill="#000000" fill-opacity="1"><g transform="translate(232.195484, 236.170487)"><g><path d="M 7.0625 -18.03125 L 6.953125 -15.59375 L 6.984375 -15.546875 C 8.898438 -17.515625 11.035156 -18.523438 13.390625 -18.578125 C 15.816406 -18.554688 17.390625 -17.546875 18.109375 -15.546875 C 19.910156 -17.585938 21.9375 -18.597656 24.1875 -18.578125 C 25.769531 -18.578125 27.003906 -18.125 27.890625 -17.21875 C 28.785156 -16.320312 29.234375 -15.035156 29.234375 -13.359375 L 29.265625 -1.796875 L 31.78125 -1.078125 C 31.851562 -0.617188 31.796875 -0.195312 31.609375 0.1875 C 29.453125 0.0625 28.070312 0 27.46875 0 C 26.84375 0 25.425781 0.0625 23.21875 0.1875 C 23.144531 -0.269531 23.171875 -0.691406 23.296875 -1.078125 C 24.035156 -1.222656 24.828125 -1.460938 25.671875 -1.796875 L 25.671875 -11.734375 C 25.671875 -13.316406 25.421875 -14.421875 24.921875 -15.046875 C 24.429688 -15.671875 23.625 -15.984375 22.5 -15.984375 C 21.132812 -15.960938 19.78125 -15.179688 18.4375 -13.640625 L 18.46875 -1.796875 L 20.984375 -1.078125 C 21.054688 -0.617188 21 -0.195312 20.8125 0.1875 C 18.8125 0.0625 17.429688 0 16.671875 0 C 15.921875 0 14.503906 0.0625 12.421875 0.1875 C 12.347656 -0.269531 12.367188 -0.691406 12.484375 -1.078125 C 13.234375 -1.222656 14.03125 -1.460938 14.875 -1.796875 L 14.875 -11.734375 C 14.875 -13.316406 14.625 -14.429688 14.125 -15.078125 C 13.632812 -15.734375 12.828125 -16.0625 11.703125 -16.0625 C 10.378906 -16.03125 8.890625 -15.304688 7.234375 -13.890625 L 7.234375 -1.796875 L 9.640625 -1.078125 C 9.710938 -0.617188 9.65625 -0.195312 9.46875 0.1875 C 7.550781 0.0625 6.207031 0 5.4375 0 C 4.570312 0 3.109375 0.0625 1.046875 0.1875 C 0.972656 -0.269531 0.992188 -0.691406 1.109375 -1.078125 C 2.265625 -1.367188 3.109375 -1.609375 3.640625 -1.796875 L 3.640625 -15.84375 L 0.640625 -16.125 C 0.578125 -16.601562 0.640625 -17.023438 0.828125 -17.390625 C 2.671875 -17.703125 4.335938 -18.023438 5.828125 -18.359375 C 6.234375 -18.335938 6.644531 -18.226562 7.0625 -18.03125 Z M 7.0625 -18.03125 "/></g></g></g><g fill="#000000" fill-opacity="1"><g transform="translate(264.271532, 236.170487)"><g/></g></g><g fill="#000000" fill-opacity="1"><g transform="translate(272.803559, 236.170487)"><g><path d="M 8.03125 -1.984375 L 16.671875 -1.984375 L 17.640625 -6.40625 C 18.140625 -6.5 18.570312 -6.460938 18.9375 -6.296875 C 19.175781 -4.546875 19.296875 -2.445312 19.296875 0 L 6.234375 0 C 5.265625 0 3.664062 0.0625 1.4375 0.1875 C 1.363281 -0.269531 1.390625 -0.691406 1.515625 -1.078125 C 2.898438 -1.335938 3.8125 -1.578125 4.25 -1.796875 L 4.25 -23.40625 L 1.46875 -24.125 C 1.40625 -24.570312 1.46875 -24.988281 1.65625 -25.375 C 3.8125 -25.257812 5.273438 -25.203125 6.046875 -25.203125 C 7.128906 -25.203125 8.773438 -25.257812 10.984375 -25.375 C 11.054688 -24.925781 11.03125 -24.507812 10.90625 -24.125 C 9.632812 -24 8.675781 -23.757812 8.03125 -23.40625 Z M 8.03125 -1.984375 "/></g></g></g><g fill="#000000" fill-opacity="1"><g transform="translate(292.531593, 236.170487)"><g><path d="M 5.140625 -9.71875 L 5.140625 -9 C 5.140625 -6.601562 5.625 -4.734375 6.59375 -3.390625 C 7.570312 -2.046875 8.898438 -1.375 10.578125 -1.375 C 11.660156 -1.375 12.523438 -1.472656 13.171875 -1.671875 C 13.816406 -1.878906 14.632812 -2.316406 15.625 -2.984375 C 16.007812 -2.816406 16.222656 -2.53125 16.265625 -2.125 C 14.609375 -0.320312 12.675781 0.585938 10.46875 0.609375 C 7.71875 0.609375 5.515625 -0.253906 3.859375 -1.984375 C 2.203125 -3.710938 1.359375 -6.050781 1.328125 -9 C 1.359375 -12.019531 2.226562 -14.375 3.9375 -16.0625 C 5.65625 -17.757812 7.773438 -18.609375 10.296875 -18.609375 C 12.335938 -18.609375 13.890625 -17.914062 14.953125 -16.53125 C 16.023438 -15.15625 16.5625 -13.289062 16.5625 -10.9375 C 16.5625 -10.53125 16.550781 -10.222656 16.53125 -10.015625 L 16.015625 -9.609375 Z M 10.265625 -17.0625 C 9.128906 -17.0625 8.085938 -16.550781 7.140625 -15.53125 C 6.191406 -14.507812 5.578125 -13.066406 5.296875 -11.203125 L 13.140625 -11.625 C 13.140625 -13.550781 12.925781 -14.9375 12.5 -15.78125 C 12.082031 -16.632812 11.335938 -17.0625 10.265625 -17.0625 Z M 10.265625 -17.0625 "/></g></g></g><g fill="#000000" fill-opacity="1"><g transform="translate(310.351622, 236.170487)"><g><path d="M 19.984375 1.015625 L 15.4375 -11.984375 L 10.984375 0.5 C 10.453125 0.769531 9.882812 0.925781 9.28125 0.96875 L 2.65625 -16.203125 L -0.109375 -16.921875 C -0.179688 -17.378906 -0.117188 -17.800781 0.078125 -18.1875 C 2.234375 -18.0625 3.695312 -18 4.46875 -18 C 5.257812 -18 6.769531 -18.0625 9 -18.1875 C 9.070312 -17.726562 9.046875 -17.304688 8.921875 -16.921875 C 7.609375 -16.628906 6.78125 -16.390625 6.4375 -16.203125 L 9.109375 -8.671875 C 9.710938 -6.972656 10.21875 -5.269531 10.625 -3.5625 L 10.734375 -3.5625 C 11.253906 -5.625 11.742188 -7.28125 12.203125 -8.53125 L 14.515625 -14.6875 L 14 -16.203125 L 11.234375 -16.921875 C 11.160156 -17.378906 11.21875 -17.800781 11.40625 -18.1875 C 13.257812 -18.0625 14.691406 -18 15.703125 -18 C 16.734375 -18 18.113281 -18.0625 19.84375 -18.1875 C 19.90625 -17.726562 19.878906 -17.304688 19.765625 -16.921875 C 18.441406 -16.660156 17.613281 -16.421875 17.28125 -16.203125 L 19.6875 -8.359375 C 20.507812 -5.734375 21.015625 -4.015625 21.203125 -3.203125 L 21.3125 -3.203125 C 21.570312 -4.398438 22.039062 -6.019531 22.71875 -8.0625 L 25.265625 -16.203125 L 22.5 -16.921875 C 22.425781 -17.378906 22.488281 -17.800781 22.6875 -18.1875 C 24.238281 -18.0625 25.4375 -18 26.28125 -18 C 27.070312 -18 28.34375 -18.0625 30.09375 -18.1875 C 30.164062 -17.726562 30.144531 -17.304688 30.03125 -16.921875 C 28.75 -16.703125 27.894531 -16.460938 27.46875 -16.203125 L 21.703125 0.5 C 21.148438 0.789062 20.578125 0.960938 19.984375 1.015625 Z M 19.984375 1.015625 "/></g></g></g><g fill="#000000" fill-opacity="1"><g transform="translate(340.303692, 236.170487)"><g><path d="M 2.40625 -24.078125 C 2.40625 -24.535156 2.679688 -25.003906 3.234375 -25.484375 C 3.785156 -25.960938 4.363281 -26.203125 4.96875 -26.203125 C 5.570312 -26.203125 6.085938 -25.929688 6.515625 -25.390625 C 6.941406 -24.859375 7.15625 -24.316406 7.15625 -23.765625 C 7.15625 -23.285156 6.882812 -22.8125 6.34375 -22.34375 C 5.8125 -21.875 5.234375 -21.640625 4.609375 -21.640625 C 4.054688 -21.640625 3.550781 -21.90625 3.09375 -22.4375 C 2.632812 -22.976562 2.40625 -23.523438 2.40625 -24.078125 Z M 7.375 -17.96875 L 7.375 -1.796875 L 9.796875 -1.078125 C 9.867188 -0.617188 9.804688 -0.195312 9.609375 0.1875 C 7.453125 0.0625 6.109375 0 5.578125 0 C 4.859375 0 3.394531 0.0625 1.1875 0.1875 C 1.113281 -0.269531 1.140625 -0.691406 1.265625 -1.078125 C 2.609375 -1.390625 3.445312 -1.628906 3.78125 -1.796875 L 3.78125 -15.84375 L 0.796875 -16.125 C 0.722656 -16.601562 0.78125 -17.023438 0.96875 -17.390625 C 2.957031 -17.671875 4.640625 -17.992188 6.015625 -18.359375 C 6.421875 -18.335938 6.875 -18.207031 7.375 -17.96875 Z M 7.375 -17.96875 "/></g></g></g><g fill="#000000" fill-opacity="1"><g transform="translate(350.743724, 236.170487)"><g><path d="M 3.59375 -5.40625 L 3.953125 -1.578125 C 4.742188 -1.148438 5.835938 -0.9375 7.234375 -0.9375 C 8.285156 -0.9375 9.175781 -1.160156 9.90625 -1.609375 C 10.644531 -2.066406 11.015625 -2.753906 11.015625 -3.671875 C 11.015625 -4.484375 10.65625 -5.195312 9.9375 -5.8125 C 9.21875 -6.425781 7.984375 -7.140625 6.234375 -7.953125 C 4.710938 -8.648438 3.597656 -9.441406 2.890625 -10.328125 C 2.191406 -11.210938 1.84375 -12.351562 1.84375 -13.75 C 1.84375 -15.382812 2.425781 -16.609375 3.59375 -17.421875 C 4.769531 -18.234375 6.304688 -18.640625 8.203125 -18.640625 C 10.054688 -18.640625 11.8125 -18.304688 13.46875 -17.640625 C 13.46875 -17.546875 13.472656 -17.410156 13.484375 -17.234375 C 13.492188 -17.066406 13.5 -16.9375 13.5 -16.84375 C 13.5 -15.425781 13.269531 -14.046875 12.8125 -12.703125 C 12.570312 -12.660156 12.394531 -12.640625 12.28125 -12.640625 C 11.914062 -12.640625 11.554688 -12.710938 11.203125 -12.859375 L 10.625 -16.734375 C 9.875 -16.953125 9.101562 -17.0625 8.3125 -17.0625 C 7.332031 -17.0625 6.507812 -16.859375 5.84375 -16.453125 C 5.1875 -16.046875 4.847656 -15.382812 4.828125 -14.46875 C 4.828125 -13.65625 5.125 -12.957031 5.71875 -12.375 C 6.320312 -11.800781 7.453125 -11.117188 9.109375 -10.328125 C 11.054688 -9.390625 12.410156 -8.5 13.171875 -7.65625 C 13.941406 -6.820312 14.328125 -5.769531 14.328125 -4.5 C 14.328125 -2.863281 13.695312 -1.582031 12.4375 -0.65625 C 11.175781 0.257812 9.523438 0.71875 7.484375 0.71875 C 4.960938 0.769531 2.9375 0.289062 1.40625 -0.71875 L 1.40625 -1.328125 C 1.382812 -2.835938 1.597656 -4.242188 2.046875 -5.546875 C 2.191406 -5.566406 2.3125 -5.578125 2.40625 -5.578125 C 2.84375 -5.578125 3.238281 -5.519531 3.59375 -5.40625 Z M 3.59375 -5.40625 "/></g></g></g><g fill="#000000" fill-opacity="1"><g transform="translate(78.214125, 258.520457)"><g><path d="M 2.644531 -2.863281 L 7.199219 -2.863281 L 7.972656 -0.359375 C 8.0625 -0.0351562 8.40625 0.179688 8.675781 0.179688 C 9.109375 0.179688 9.433594 -0.109375 9.433594 -0.539062 C 9.433594 -0.613281 9.414062 -0.757812 9.394531 -0.808594 L 5.886719 -11.914062 C 5.707031 -12.472656 5.472656 -12.871094 4.933594 -12.871094 C 4.410156 -12.871094 4.15625 -12.457031 3.996094 -11.914062 L 0.484375 -0.808594 C 0.46875 -0.757812 0.449219 -0.613281 0.449219 -0.539062 C 0.449219 -0.109375 0.792969 0.179688 1.207031 0.179688 C 1.457031 0.179688 1.78125 -0.0351562 1.890625 -0.359375 Z M 4.933594 -10.367188 L 6.785156 -4.265625 L 3.078125 -4.265625 Z M 4.933594 -10.367188 "/></g></g></g><g fill="#000000" fill-opacity="1"><g transform="translate(88.6181, 258.520457)"><g><path d="M 0.808594 -3.167969 C 0.808594 -1.3125 1.78125 0.144531 4.03125 0.144531 C 4.878906 0.144531 6.535156 -0.109375 6.535156 -0.953125 C 6.535156 -1.277344 6.265625 -1.566406 5.921875 -1.566406 C 5.832031 -1.566406 5.742188 -1.546875 5.632812 -1.511719 C 5.203125 -1.296875 4.804688 -1.097656 4.175781 -1.097656 C 2.773438 -1.097656 2.214844 -1.855469 2.214844 -3.167969 L 2.214844 -5.886719 C 2.214844 -7.199219 2.773438 -7.957031 4.175781 -7.957031 C 4.804688 -7.957031 5.203125 -7.757812 5.632812 -7.542969 C 5.742188 -7.507812 5.832031 -7.488281 5.921875 -7.488281 C 6.265625 -7.488281 6.535156 -7.777344 6.535156 -8.101562 C 6.535156 -8.945312 4.878906 -9.199219 4.03125 -9.199219 C 1.78125 -9.199219 0.808594 -7.738281 0.808594 -5.886719 Z M 0.808594 -3.167969 "/></g></g></g><g fill="#000000" fill-opacity="1"><g transform="translate(96.214084, 258.520457)"><g><path d="M 2.71875 -0.558594 L 2.71875 -6.910156 C 3.238281 -7.613281 4.066406 -7.9375 4.804688 -7.9375 C 5.921875 -7.9375 6.371094 -7.34375 6.371094 -6.246094 L 6.371094 -0.558594 C 6.371094 -0.160156 6.679688 0.144531 7.074219 0.144531 C 7.453125 0.144531 7.777344 -0.160156 7.777344 -0.558594 L 7.777344 -6.265625 C 7.777344 -8.011719 6.894531 -9.253906 4.96875 -9.253906 C 4.105469 -9.253906 3.328125 -8.964844 2.71875 -8.496094 L 2.71875 -12.457031 C 2.71875 -12.851562 2.410156 -13.15625 2.015625 -13.15625 C 1.621094 -13.15625 1.332031 -12.816406 1.332031 -12.457031 L 1.332031 -0.558594 C 1.332031 -0.160156 1.636719 0.144531 2.035156 0.144531 C 2.429688 0.144531 2.71875 -0.160156 2.71875 -0.558594 Z M 2.71875 -0.558594 "/></g></g></g><g fill="#000000" fill-opacity="1"><g transform="translate(105.862062, 258.520457)"><g><path d="M 3.058594 -12.023438 C 3.058594 -12.511719 2.683594 -12.886719 2.195312 -12.886719 C 1.710938 -12.886719 1.332031 -12.511719 1.332031 -12.023438 C 1.332031 -11.554688 1.710938 -11.160156 2.195312 -11.160156 C 2.683594 -11.160156 3.058594 -11.554688 3.058594 -12.023438 Z M 2.898438 -0.558594 L 2.898438 -8.496094 C 2.898438 -8.875 2.59375 -9.199219 2.195312 -9.199219 C 1.800781 -9.199219 1.492188 -8.875 1.492188 -8.496094 L 1.492188 -0.558594 C 1.492188 -0.160156 1.800781 0.144531 2.195312 0.144531 C 2.59375 0.144531 2.898438 -0.160156 2.898438 -0.558594 Z M 2.898438 -0.558594 "/></g></g></g><g fill="#000000" fill-opacity="1"><g transform="translate(110.794056, 258.520457)"><g><path d="M 4.175781 -1.097656 C 2.878906 -1.097656 2.214844 -1.746094 2.214844 -2.753906 L 2.214844 -3.816406 C 2.84375 -3.707031 3.511719 -3.652344 4.050781 -3.652344 C 6.191406 -3.652344 7.09375 -4.660156 7.09375 -6.316406 C 7.09375 -8.101562 6.101562 -9.253906 4.105469 -9.253906 C 1.960938 -9.253906 0.808594 -7.9375 0.808594 -6.210938 L 0.808594 -2.84375 C 0.808594 -1.152344 1.980469 0.144531 4.015625 0.144531 C 4.984375 0.144531 6.929688 -0.144531 6.929688 -1.027344 C 6.929688 -1.351562 6.660156 -1.65625 6.300781 -1.65625 C 6.175781 -1.65625 6.085938 -1.621094 6.046875 -1.601562 C 5.417969 -1.3125 4.933594 -1.097656 4.175781 -1.097656 Z M 5.707031 -6.316406 C 5.707031 -5.578125 5.472656 -4.84375 4.105469 -4.84375 C 3.742188 -4.84375 2.878906 -4.878906 2.214844 -4.96875 L 2.214844 -6.335938 C 2.214844 -7.34375 2.898438 -7.972656 4.066406 -7.972656 C 5.113281 -7.972656 5.707031 -7.488281 5.707031 -6.316406 Z M 5.707031 -6.316406 "/></g></g></g><g fill="#000000" fill-opacity="1"><g transform="translate(119.146037, 258.520457)"><g><path d="M 7.273438 -8.316406 C 7.398438 -8.785156 7.039062 -9.199219 6.605469 -9.199219 C 6.335938 -9.199219 6.066406 -9 5.976562 -8.730469 L 3.90625 -1.945312 L 1.800781 -8.730469 C 1.691406 -9.035156 1.441406 -9.199219 1.171875 -9.199219 C 0.757812 -9.199219 0.34375 -8.800781 0.484375 -8.371094 L 2.988281 -0.683594 C 3.1875 -0.109375 3.421875 0.144531 3.90625 0.144531 C 4.375 0.144531 4.625 -0.109375 4.824219 -0.703125 Z M 7.273438 -8.316406 "/></g></g></g><g fill="#000000" fill-opacity="1"><g transform="translate(127.408021, 258.520457)"><g><path d="M 3.058594 -12.023438 C 3.058594 -12.511719 2.683594 -12.886719 2.195312 -12.886719 C 1.710938 -12.886719 1.332031 -12.511719 1.332031 -12.023438 C 1.332031 -11.554688 1.710938 -11.160156 2.195312 -11.160156 C 2.683594 -11.160156 3.058594 -11.554688 3.058594 -12.023438 Z M 2.898438 -0.558594 L 2.898438 -8.496094 C 2.898438 -8.875 2.59375 -9.199219 2.195312 -9.199219 C 1.800781 -9.199219 1.492188 -8.875 1.492188 -8.496094 L 1.492188 -0.558594 C 1.492188 -0.160156 1.800781 0.144531 2.195312 0.144531 C 2.59375 0.144531 2.898438 -0.160156 2.898438 -0.558594 Z M 2.898438 -0.558594 "/></g></g></g><g fill="#000000" fill-opacity="1"><g transform="translate(132.340018, 258.520457)"><g><path d="M 2.789062 -6.679688 C 2.789062 -6.820312 2.773438 -7.003906 2.734375 -7.199219 C 3.347656 -7.667969 4.03125 -7.957031 4.734375 -7.957031 C 5.8125 -7.957031 6.390625 -7.183594 6.390625 -5.8125 L 6.390625 -0.558594 C 6.390625 -0.179688 6.640625 0.125 7.09375 0.125 C 7.542969 0.125 7.792969 -0.179688 7.792969 -0.558594 L 7.792969 -5.8125 C 7.792969 -7.847656 6.839844 -9.214844 4.933594 -9.214844 C 4.066406 -9.214844 3.148438 -8.964844 2.359375 -8.40625 C 2.160156 -8.710938 1.925781 -8.929688 1.601562 -8.929688 C 1.222656 -8.929688 0.9375 -8.65625 0.9375 -8.296875 C 0.9375 -8.117188 1.027344 -8.011719 1.0625 -7.9375 C 1.222656 -7.667969 1.386719 -7.667969 1.386719 -6.679688 L 1.386719 -0.558594 C 1.386719 -0.179688 1.621094 0.125 2.089844 0.125 C 2.554688 0.125 2.789062 -0.179688 2.789062 -0.558594 Z M 2.789062 -6.679688 "/></g></g></g><g fill="#000000" fill-opacity="1"><g transform="translate(142.023985, 258.520457)"><g><path d="M 4.15625 -9.253906 C 1.996094 -9.253906 0.9375 -7.828125 0.9375 -5.957031 C 0.9375 -4.894531 1.277344 -4.015625 1.90625 -3.421875 C 1.367188 -2.933594 1.222656 -2.375 1.222656 -1.945312 C 1.222656 -1.53125 1.351562 -0.972656 1.765625 -0.558594 C 1.152344 0.0351562 0.808594 0.71875 0.808594 1.601562 C 0.808594 3.347656 2.230469 4.375 4.265625 4.375 C 6.390625 4.375 7.957031 3.257812 7.957031 1.441406 C 7.957031 -0.359375 6.40625 -1.207031 4.355469 -1.207031 L 3.601562 -1.207031 C 3.203125 -1.207031 2.628906 -1.367188 2.628906 -1.996094 C 2.628906 -2.214844 2.683594 -2.519531 2.84375 -2.824219 C 3.257812 -2.664062 3.726562 -2.59375 4.265625 -2.59375 C 6.425781 -2.59375 7.523438 -3.996094 7.523438 -5.832031 L 7.523438 -6.949219 C 7.523438 -7.828125 7.8125 -8.027344 8.496094 -8.695312 C 8.550781 -8.746094 8.621094 -8.875 8.621094 -9.054688 C 8.621094 -9.414062 8.335938 -9.683594 7.957031 -9.683594 C 7.558594 -9.683594 6.910156 -9.378906 6.515625 -8.640625 C 5.832031 -9.035156 4.984375 -9.253906 4.15625 -9.253906 Z M 6.121094 -6.929688 L 6.121094 -5.796875 C 6.121094 -4.609375 5.542969 -3.886719 4.265625 -3.886719 C 2.914062 -3.886719 2.339844 -4.699219 2.339844 -5.921875 C 2.339844 -7.253906 3.007812 -7.992188 4.339844 -7.992188 C 5.003906 -7.992188 5.597656 -7.792969 6.15625 -7.453125 C 6.136719 -7.289062 6.121094 -7.109375 6.121094 -6.929688 Z M 3.636719 0.0898438 L 4.390625 0.0898438 C 5.832031 0.0898438 6.550781 0.523438 6.550781 1.476562 C 6.550781 2.554688 5.597656 3.078125 4.300781 3.078125 C 2.914062 3.078125 2.214844 2.484375 2.214844 1.402344 C 2.214844 0.828125 2.394531 0.378906 2.824219 0 C 3.058594 0.0546875 3.328125 0.0898438 3.636719 0.0898438 Z M 3.636719 0.0898438 "/></g></g></g><g fill="#000000" fill-opacity="1"><g transform="translate(151.419962, 258.520457)"><g/></g></g><g fill="#000000" fill-opacity="1"><g transform="translate(157.341947, 258.520457)"><g><path d="M 1.332031 -1.691406 C 1.332031 -0.0703125 2.015625 0.144531 2.464844 0.144531 C 2.824219 0.144531 3.113281 -0.144531 3.113281 -0.503906 C 3.113281 -0.648438 3.042969 -0.773438 2.988281 -0.847656 C 2.773438 -1.0625 2.734375 -1.296875 2.734375 -1.691406 L 2.734375 -12.347656 C 2.734375 -12.742188 2.429688 -13.050781 2.035156 -13.050781 C 1.636719 -13.050781 1.332031 -12.726562 1.332031 -12.347656 Z M 1.332031 -1.691406 "/></g></g></g><g fill="#000000" fill-opacity="1"><g transform="translate(161.967935, 258.520457)"><g><path d="M 4.175781 0.144531 C 6.371094 0.144531 7.542969 -1.261719 7.542969 -3.058594 L 7.542969 -6.066406 C 7.542969 -7.867188 6.371094 -9.269531 4.175781 -9.269531 C 1.980469 -9.269531 0.808594 -7.867188 0.808594 -6.066406 L 0.808594 -3.058594 C 0.808594 -1.261719 1.980469 0.144531 4.175781 0.144531 Z M 4.175781 -1.152344 C 2.878906 -1.152344 2.214844 -1.871094 2.214844 -3.058594 L 2.214844 -6.085938 C 2.214844 -7.253906 2.878906 -7.972656 4.175781 -7.972656 C 5.472656 -7.972656 6.136719 -7.253906 6.136719 -6.085938 L 6.136719 -3.058594 C 6.136719 -1.871094 5.472656 -1.152344 4.175781 -1.152344 Z M 4.175781 -1.152344 "/></g></g></g><g fill="#000000" fill-opacity="1"><g transform="translate(170.841912, 258.520457)"><g><path d="M 11.320312 -8.371094 C 11.320312 -8.40625 11.339844 -8.460938 11.339844 -8.496094 C 11.339844 -8.890625 11.015625 -9.199219 10.65625 -9.199219 C 10.351562 -9.199219 10.078125 -8.980469 10.007812 -8.695312 L 8.335938 -2.070312 C 7.777344 -4.246094 7.21875 -6.371094 6.695312 -8.566406 C 6.605469 -8.929688 6.335938 -9.199219 5.921875 -9.199219 C 5.488281 -9.199219 5.203125 -8.929688 5.113281 -8.566406 C 4.570312 -6.371094 4.050781 -4.246094 3.492188 -2.070312 L 1.800781 -8.695312 C 1.710938 -9.019531 1.441406 -9.199219 1.152344 -9.199219 C 0.757812 -9.199219 0.449219 -8.875 0.449219 -8.53125 C 0.449219 -8.496094 0.449219 -8.460938 0.46875 -8.425781 L 2.554688 -0.664062 C 2.699219 -0.160156 2.96875 0.144531 3.457031 0.144531 C 3.90625 0.144531 4.175781 -0.0351562 4.300781 -0.46875 L 5.902344 -6.785156 L 7.523438 -0.46875 C 7.632812 -0.0703125 7.972656 0.144531 8.351562 0.144531 C 8.875 0.144531 9.089844 -0.125 9.253906 -0.664062 Z M 11.320312 -8.371094 "/></g></g></g><g fill="#000000" fill-opacity="1"><g transform="translate(183.153877, 258.520457)"><g><path d="M 6.480469 -5.308594 C 6.480469 -5.671875 6.191406 -5.976562 5.832031 -5.976562 L 1.351562 -5.976562 C 0.972656 -5.976562 0.683594 -5.671875 0.683594 -5.308594 C 0.683594 -4.949219 0.972656 -4.660156 1.351562 -4.660156 L 5.832031 -4.660156 C 6.191406 -4.660156 6.480469 -4.949219 6.480469 -5.308594 Z M 6.480469 -5.308594 "/></g></g></g><g fill="#000000" fill-opacity="1"><g transform="translate(190.857856, 258.520457)"><g><path d="M 0.808594 -3.167969 C 0.808594 -1.3125 1.78125 0.144531 4.03125 0.144531 C 4.878906 0.144531 6.535156 -0.109375 6.535156 -0.953125 C 6.535156 -1.277344 6.265625 -1.566406 5.921875 -1.566406 C 5.832031 -1.566406 5.742188 -1.546875 5.632812 -1.511719 C 5.203125 -1.296875 4.804688 -1.097656 4.175781 -1.097656 C 2.773438 -1.097656 2.214844 -1.855469 2.214844 -3.167969 L 2.214844 -5.886719 C 2.214844 -7.199219 2.773438 -7.957031 4.175781 -7.957031 C 4.804688 -7.957031 5.203125 -7.757812 5.632812 -7.542969 C 5.742188 -7.507812 5.832031 -7.488281 5.921875 -7.488281 C 6.265625 -7.488281 6.535156 -7.777344 6.535156 -8.101562 C 6.535156 -8.945312 4.878906 -9.199219 4.03125 -9.199219 C 1.78125 -9.199219 0.808594 -7.738281 0.808594 -5.886719 Z M 0.808594 -3.167969 "/></g></g></g><g fill="#000000" fill-opacity="1"><g transform="translate(198.453837, 258.520457)"><g><path d="M 4.175781 0.144531 C 6.371094 0.144531 7.542969 -1.261719 7.542969 -3.058594 L 7.542969 -6.066406 C 7.542969 -7.867188 6.371094 -9.269531 4.175781 -9.269531 C 1.980469 -9.269531 0.808594 -7.867188 0.808594 -6.066406 L 0.808594 -3.058594 C 0.808594 -1.261719 1.980469 0.144531 4.175781 0.144531 Z M 4.175781 -1.152344 C 2.878906 -1.152344 2.214844 -1.871094 2.214844 -3.058594 L 2.214844 -6.085938 C 2.214844 -7.253906 2.878906 -7.972656 4.175781 -7.972656 C 5.472656 -7.972656 6.136719 -7.253906 6.136719 -6.085938 L 6.136719 -3.058594 C 6.136719 -1.871094 5.472656 -1.152344 4.175781 -1.152344 Z M 4.175781 -1.152344 "/></g></g></g><g fill="#000000" fill-opacity="1"><g transform="translate(207.327814, 258.520457)"><g><path d="M 3.816406 -9.179688 C 1.53125 -9.179688 0.808594 -7.6875 0.808594 -5.542969 L 0.808594 -3.257812 C 0.808594 -1.242188 1.78125 0.144531 3.671875 0.144531 C 4.570312 0.144531 5.4375 -0.160156 6.226562 -0.558594 C 6.445312 -0.214844 6.769531 0.0195312 7.183594 0.0195312 C 7.488281 0.0195312 7.8125 -0.234375 7.8125 -0.613281 C 7.8125 -0.773438 7.757812 -0.863281 7.6875 -0.972656 C 7.324219 -1.242188 7.21875 -1.546875 7.21875 -2.050781 L 7.21875 -12.367188 C 7.21875 -12.742188 6.964844 -13.050781 6.515625 -13.050781 C 6.066406 -13.050781 5.8125 -12.742188 5.8125 -12.367188 L 5.8125 -8.839844 C 5.164062 -9.054688 4.410156 -9.179688 3.816406 -9.179688 Z M 5.8125 -2.050781 C 5.8125 -1.925781 5.8125 -1.78125 5.851562 -1.636719 C 5.238281 -1.3125 4.535156 -1.117188 3.960938 -1.117188 C 2.773438 -1.117188 2.214844 -1.855469 2.214844 -3.257812 L 2.214844 -5.542969 C 2.214844 -7.21875 2.683594 -7.957031 3.996094 -7.957031 C 4.429688 -7.957031 5.21875 -7.828125 5.8125 -7.578125 Z M 5.8125 -2.050781 "/></g></g></g><g fill="#000000" fill-opacity="1"><g transform="translate(216.633783, 258.520457)"><g><path d="M 4.175781 -1.097656 C 2.878906 -1.097656 2.214844 -1.746094 2.214844 -2.753906 L 2.214844 -3.816406 C 2.84375 -3.707031 3.511719 -3.652344 4.050781 -3.652344 C 6.191406 -3.652344 7.09375 -4.660156 7.09375 -6.316406 C 7.09375 -8.101562 6.101562 -9.253906 4.105469 -9.253906 C 1.960938 -9.253906 0.808594 -7.9375 0.808594 -6.210938 L 0.808594 -2.84375 C 0.808594 -1.152344 1.980469 0.144531 4.015625 0.144531 C 4.984375 0.144531 6.929688 -0.144531 6.929688 -1.027344 C 6.929688 -1.351562 6.660156 -1.65625 6.300781 -1.65625 C 6.175781 -1.65625 6.085938 -1.621094 6.046875 -1.601562 C 5.417969 -1.3125 4.933594 -1.097656 4.175781 -1.097656 Z M 5.707031 -6.316406 C 5.707031 -5.578125 5.472656 -4.84375 4.105469 -4.84375 C 3.742188 -4.84375 2.878906 -4.878906 2.214844 -4.96875 L 2.214844 -6.335938 C 2.214844 -7.34375 2.898438 -7.972656 4.066406 -7.972656 C 5.113281 -7.972656 5.707031 -7.488281 5.707031 -6.316406 Z M 5.707031 -6.316406 "/></g></g></g><g fill="#000000" fill-opacity="1"><g transform="translate(224.985761, 258.520457)"><g/></g></g><g fill="#000000" fill-opacity="1"><g transform="translate(230.907746, 258.520457)"><g><path d="M 4.175781 -1.097656 C 2.878906 -1.097656 2.214844 -1.746094 2.214844 -2.753906 L 2.214844 -3.816406 C 2.84375 -3.707031 3.511719 -3.652344 4.050781 -3.652344 C 6.191406 -3.652344 7.09375 -4.660156 7.09375 -6.316406 C 7.09375 -8.101562 6.101562 -9.253906 4.105469 -9.253906 C 1.960938 -9.253906 0.808594 -7.9375 0.808594 -6.210938 L 0.808594 -2.84375 C 0.808594 -1.152344 1.980469 0.144531 4.015625 0.144531 C 4.984375 0.144531 6.929688 -0.144531 6.929688 -1.027344 C 6.929688 -1.351562 6.660156 -1.65625 6.300781 -1.65625 C 6.175781 -1.65625 6.085938 -1.621094 6.046875 -1.601562 C 5.417969 -1.3125 4.933594 -1.097656 4.175781 -1.097656 Z M 5.707031 -6.316406 C 5.707031 -5.578125 5.472656 -4.84375 4.105469 -4.84375 C 3.742188 -4.84375 2.878906 -4.878906 2.214844 -4.96875 L 2.214844 -6.335938 C 2.214844 -7.34375 2.898438 -7.972656 4.066406 -7.972656 C 5.113281 -7.972656 5.707031 -7.488281 5.707031 -6.316406 Z M 5.707031 -6.316406 "/></g></g></g><g fill="#000000" fill-opacity="1"><g transform="translate(239.259724, 258.520457)"><g><path d="M 6.335938 -2.214844 C 6.335938 -2.070312 6.355469 -1.890625 6.371094 -1.710938 C 5.777344 -1.332031 5.09375 -1.117188 4.390625 -1.117188 C 3.3125 -1.117188 2.734375 -1.890625 2.734375 -3.257812 L 2.734375 -8.515625 C 2.734375 -8.890625 2.484375 -9.199219 2.035156 -9.199219 C 1.585938 -9.199219 1.332031 -8.890625 1.332031 -8.515625 L 1.332031 -3.257812 C 1.332031 -1.222656 2.285156 0.144531 4.195312 0.144531 C 5.039062 0.144531 5.957031 -0.0546875 6.75 -0.503906 C 6.949219 -0.179688 7.183594 0.0351562 7.523438 0.0351562 C 7.902344 0.0351562 8.191406 -0.253906 8.191406 -0.59375 C 8.191406 -0.757812 8.101562 -0.882812 8.0625 -0.953125 C 7.921875 -1.222656 7.738281 -1.222656 7.738281 -2.214844 L 7.738281 -8.515625 C 7.738281 -8.890625 7.507812 -9.199219 7.039062 -9.199219 C 6.570312 -9.199219 6.335938 -8.890625 6.335938 -8.515625 Z M 6.335938 -2.214844 "/></g></g></g><g fill="#000000" fill-opacity="1"><g transform="translate(248.94369, 258.520457)"><g><path d="M 4.789062 0.125 C 7.074219 0.125 7.792969 -1.367188 7.792969 -3.511719 L 7.792969 -5.851562 C 7.792969 -7.867188 6.820312 -9.253906 4.933594 -9.253906 C 3.996094 -9.253906 3.113281 -8.890625 2.304688 -8.460938 C 2.125 -8.710938 1.890625 -8.890625 1.601562 -8.890625 C 1.296875 -8.890625 0.972656 -8.640625 0.972656 -8.261719 C 0.972656 -8.101562 1.027344 -8.011719 1.097656 -7.902344 C 1.3125 -7.578125 1.386719 -7.234375 1.386719 -6.640625 L 1.386719 3.1875 C 1.386719 3.5625 1.636719 3.871094 2.089844 3.871094 C 2.539062 3.871094 2.789062 3.5625 2.789062 3.1875 L 2.789062 -0.214844 C 3.4375 0 4.175781 0.125 4.789062 0.125 Z M 2.789062 -6.640625 C 2.789062 -6.859375 2.753906 -7.109375 2.699219 -7.378906 C 3.3125 -7.757812 4.03125 -7.992188 4.644531 -7.992188 C 5.832031 -7.992188 6.390625 -7.253906 6.390625 -5.851562 L 6.390625 -3.511719 C 6.390625 -1.835938 5.921875 -1.097656 4.609375 -1.097656 C 4.15625 -1.097656 3.367188 -1.207031 2.789062 -1.476562 Z M 2.789062 -6.640625 "/></g></g></g><g fill="#000000" fill-opacity="1"><g transform="translate(258.069666, 258.520457)"><g><path d="M 2.71875 -0.558594 L 2.71875 -6.910156 C 3.238281 -7.613281 4.066406 -7.9375 4.804688 -7.9375 C 5.921875 -7.9375 6.371094 -7.34375 6.371094 -6.246094 L 6.371094 -0.558594 C 6.371094 -0.160156 6.679688 0.144531 7.074219 0.144531 C 7.453125 0.144531 7.777344 -0.160156 7.777344 -0.558594 L 7.777344 -6.265625 C 7.777344 -8.011719 6.894531 -9.253906 4.96875 -9.253906 C 4.105469 -9.253906 3.328125 -8.964844 2.71875 -8.496094 L 2.71875 -12.457031 C 2.71875 -12.851562 2.410156 -13.15625 2.015625 -13.15625 C 1.621094 -13.15625 1.332031 -12.816406 1.332031 -12.457031 L 1.332031 -0.558594 C 1.332031 -0.160156 1.636719 0.144531 2.035156 0.144531 C 2.429688 0.144531 2.71875 -0.160156 2.71875 -0.558594 Z M 2.71875 -0.558594 "/></g></g></g><g fill="#000000" fill-opacity="1"><g transform="translate(267.717642, 258.520457)"><g><path d="M 4.175781 0.144531 C 6.371094 0.144531 7.542969 -1.261719 7.542969 -3.058594 L 7.542969 -6.066406 C 7.542969 -7.867188 6.371094 -9.269531 4.175781 -9.269531 C 1.980469 -9.269531 0.808594 -7.867188 0.808594 -6.066406 L 0.808594 -3.058594 C 0.808594 -1.261719 1.980469 0.144531 4.175781 0.144531 Z M 4.175781 -1.152344 C 2.878906 -1.152344 2.214844 -1.871094 2.214844 -3.058594 L 2.214844 -6.085938 C 2.214844 -7.253906 2.878906 -7.972656 4.175781 -7.972656 C 5.472656 -7.972656 6.136719 -7.253906 6.136719 -6.085938 L 6.136719 -3.058594 C 6.136719 -1.871094 5.472656 -1.152344 4.175781 -1.152344 Z M 4.175781 -1.152344 "/></g></g></g><g fill="#000000" fill-opacity="1"><g transform="translate(276.59163, 258.520457)"><g><path d="M 2.789062 -6.640625 C 2.789062 -6.785156 2.773438 -6.949219 2.753906 -7.128906 C 3.652344 -7.792969 4.300781 -7.792969 5.039062 -7.777344 C 5.417969 -7.757812 5.742188 -8.046875 5.742188 -8.496094 C 5.742188 -8.875 5.527344 -9.179688 4.804688 -9.179688 C 4.121094 -9.179688 3.113281 -8.890625 2.339844 -8.40625 C 2.160156 -8.695312 1.90625 -8.890625 1.621094 -8.890625 C 1.277344 -8.890625 0.972656 -8.640625 0.972656 -8.261719 C 0.972656 -8.101562 1.027344 -8.011719 1.097656 -7.902344 C 1.3125 -7.578125 1.386719 -7.234375 1.386719 -6.640625 L 1.386719 -0.558594 C 1.386719 -0.160156 1.691406 0.144531 2.089844 0.144531 C 2.484375 0.144531 2.789062 -0.160156 2.789062 -0.558594 Z M 2.789062 -6.640625 "/></g></g></g><g fill="#000000" fill-opacity="1"><g transform="translate(283.179627, 258.520457)"><g><path d="M 3.058594 -12.023438 C 3.058594 -12.511719 2.683594 -12.886719 2.195312 -12.886719 C 1.710938 -12.886719 1.332031 -12.511719 1.332031 -12.023438 C 1.332031 -11.554688 1.710938 -11.160156 2.195312 -11.160156 C 2.683594 -11.160156 3.058594 -11.554688 3.058594 -12.023438 Z M 2.898438 -0.558594 L 2.898438 -8.496094 C 2.898438 -8.875 2.59375 -9.199219 2.195312 -9.199219 C 1.800781 -9.199219 1.492188 -8.875 1.492188 -8.496094 L 1.492188 -0.558594 C 1.492188 -0.160156 1.800781 0.144531 2.195312 0.144531 C 2.59375 0.144531 2.898438 -0.160156 2.898438 -0.558594 Z M 2.898438 -0.558594 "/></g></g></g><g fill="#000000" fill-opacity="1"><g transform="translate(288.111619, 258.520457)"><g><path d="M 5.796875 -5.058594 C 5.238281 -5.21875 4.625 -5.308594 3.976562 -5.308594 C 1.855469 -5.308594 0.808594 -4.410156 0.808594 -2.644531 L 0.808594 -2.574219 C 0.808594 -0.953125 1.710938 0.144531 3.5625 0.144531 C 4.535156 0.144531 5.347656 -0.179688 6.03125 -0.808594 C 6.300781 -0.253906 6.785156 0.0898438 7.378906 0.0898438 C 7.777344 0.0898438 8.191406 -0.0703125 8.191406 -0.523438 C 8.191406 -0.828125 8.011719 -1.132812 7.667969 -1.132812 C 7.597656 -1.132812 7.578125 -1.117188 7.523438 -1.117188 C 7.308594 -1.117188 7.199219 -1.296875 7.199219 -1.65625 L 7.199219 -5.617188 C 7.199219 -7.992188 6.300781 -9.253906 4.050781 -9.253906 C 2.808594 -9.253906 1.457031 -8.910156 1.53125 -8.082031 C 1.546875 -7.8125 1.691406 -7.488281 2.035156 -7.488281 C 2.230469 -7.488281 2.449219 -7.613281 2.503906 -7.632812 C 2.898438 -7.847656 3.238281 -8.011719 3.871094 -8.011719 C 5.164062 -8.011719 5.796875 -7.398438 5.796875 -6.085938 Z M 3.960938 -4.121094 C 4.5 -4.121094 5.203125 -4.03125 5.796875 -3.851562 L 5.796875 -1.90625 C 5.164062 -1.367188 4.554688 -1.117188 3.78125 -1.117188 C 2.574219 -1.117188 2.195312 -1.710938 2.195312 -2.554688 L 2.195312 -2.628906 C 2.195312 -3.4375 2.484375 -4.121094 3.960938 -4.121094 Z M 3.960938 -4.121094 "/></g></g></g><g clip-path="url(#3696882ac7)"><path fill="#5e17eb" d="M 242.550781 110.03125 C 241.761719 110.03125 240.96875 110.03125 240.179688 110.03125 L 133.027344 110.03125 C 129.566406 110.03125 126.304688 112.011719 125.515625 115.582031 C 125.316406 117.070312 125.21875 118.558594 125.316406 120.046875 L 125.316406 189.363281 C 125.21875 191.046875 125.316406 192.734375 125.714844 194.320312 C 126.800781 197.59375 129.863281 199.28125 133.125 199.28125 L 242.550781 199.28125 C 242.75 199.28125 242.949219 199.179688 243.144531 199.082031 C 247.097656 198.683594 249.667969 195.410156 249.667969 191.347656 L 249.667969 117.765625 C 249.667969 113.597656 246.800781 110.128906 242.550781 110.03125 Z M 127.789062 117.167969 C 127.886719 114.09375 130.261719 112.410156 133.125 112.410156 L 232.273438 112.410156 C 235.632812 112.410156 239.09375 112.308594 242.453125 112.410156 C 245.417969 112.507812 247.296875 114.789062 247.296875 117.664062 L 247.296875 126.292969 L 141.527344 126.292969 C 136.882812 126.292969 132.335938 126.09375 127.789062 126.292969 C 127.691406 123.316406 127.691406 120.242188 127.789062 117.167969 Z M 247.199219 191.941406 C 247.199219 194.519531 245.121094 196.601562 242.453125 196.699219 C 242.355469 196.699219 242.253906 196.699219 242.253906 196.699219 L 133.621094 196.699219 C 131.546875 196.699219 129.46875 196.402344 128.382812 194.320312 C 127.589844 192.832031 127.789062 191.148438 127.789062 189.460938 L 127.789062 129.863281 C 127.789062 129.566406 127.789062 129.167969 127.789062 128.871094 L 233.457031 128.871094 C 238.105469 128.871094 242.652344 129.070312 247.199219 128.871094 L 247.199219 190.949219 C 247.199219 191.246094 247.199219 191.644531 247.199219 191.941406 Z M 247.199219 191.941406 " fill-opacity="1" fill-rule="nonzero"/></g><path fill="#5e17eb" d="M 136.09375 120.542969 C 136.09375 120.441406 135.992188 120.441406 136.09375 120.542969 Z M 136.09375 120.542969 " fill-opacity="1" fill-rule="nonzero"/><path fill="#5e17eb" d="M 140.9375 122.820312 C 141.628906 122.027344 141.925781 121.136719 141.925781 120.046875 C 141.925781 119.847656 141.925781 119.746094 141.925781 119.550781 C 141.726562 117.960938 140.640625 116.671875 139.15625 116.078125 C 137.574219 115.484375 135.695312 115.980469 134.609375 117.269531 C 133.125 119.054688 133.324219 121.632812 135.003906 123.21875 C 136.785156 124.707031 139.355469 124.507812 140.9375 122.820312 Z M 139.453125 119.746094 C 139.453125 119.746094 139.453125 119.847656 139.453125 119.746094 C 139.453125 119.847656 139.453125 119.847656 139.453125 119.847656 C 139.453125 119.847656 139.453125 119.847656 139.453125 119.746094 Z M 135.992188 119.746094 C 135.992188 119.648438 135.992188 119.648438 135.992188 119.550781 C 135.992188 119.449219 136.09375 119.351562 136.09375 119.152344 L 136.191406 118.953125 L 136.289062 118.757812 C 136.386719 118.65625 136.488281 118.558594 136.585938 118.457031 L 136.683594 118.457031 C 136.585938 118.558594 136.683594 118.457031 136.785156 118.457031 C 136.882812 118.359375 137.082031 118.359375 137.179688 118.261719 C 137.179688 118.261719 136.882812 118.359375 137.082031 118.261719 L 137.277344 118.160156 L 137.476562 118.160156 C 137.476562 118.160156 137.476562 118.160156 137.574219 118.160156 C 137.574219 118.160156 137.671875 118.160156 137.671875 118.160156 L 137.96875 118.160156 L 138.464844 118.261719 C 138.664062 118.359375 138.664062 118.359375 138.664062 118.359375 L 138.761719 118.457031 L 138.859375 118.558594 C 138.761719 118.457031 138.664062 118.457031 138.761719 118.558594 L 139.058594 118.855469 C 139.058594 118.953125 139.15625 118.953125 139.15625 119.054688 L 139.253906 119.253906 C 139.253906 119.351562 139.253906 119.449219 139.355469 119.449219 C 139.355469 119.550781 139.253906 119.648438 139.253906 119.746094 C 139.253906 119.847656 139.253906 119.847656 139.253906 119.945312 C 139.253906 120.046875 139.15625 120.242188 139.15625 120.34375 C 139.15625 120.34375 139.15625 120.441406 139.15625 120.441406 C 139.15625 120.441406 139.15625 120.441406 139.15625 120.542969 C 139.058594 120.640625 138.957031 120.839844 138.957031 120.9375 C 138.957031 120.9375 138.859375 121.035156 138.859375 121.035156 C 138.859375 121.035156 138.761719 121.136719 138.761719 121.136719 L 138.664062 121.136719 C 138.5625 121.234375 138.5625 121.234375 138.664062 121.136719 C 138.5625 121.234375 138.464844 121.234375 138.464844 121.335938 L 138.367188 121.433594 L 137.871094 121.632812 C 137.773438 121.632812 137.773438 121.632812 137.671875 121.632812 L 137.277344 121.632812 C 137.179688 121.632812 137.082031 121.632812 137.082031 121.53125 L 136.882812 121.433594 C 136.683594 121.335938 136.980469 121.433594 136.980469 121.433594 C 136.980469 121.433594 136.683594 121.234375 136.683594 121.234375 L 136.488281 121.136719 C 136.488281 121.136719 136.191406 120.839844 136.191406 120.839844 L 136.09375 120.738281 L 136.09375 120.542969 C 136.09375 120.542969 136.09375 120.640625 136.09375 120.640625 C 136.09375 120.640625 135.992188 120.34375 135.992188 120.242188 Z M 135.992188 119.746094 " fill-opacity="1" fill-rule="nonzero"/><path fill="#5e17eb" d="M 150.820312 122.625 C 151.414062 121.929688 151.710938 121.035156 151.808594 120.144531 C 151.808594 120.046875 151.808594 120.046875 151.808594 119.945312 C 151.808594 119.945312 151.808594 119.847656 151.808594 119.847656 C 151.808594 118.0625 150.722656 116.476562 149.042969 115.878906 C 147.460938 115.285156 145.582031 115.78125 144.496094 117.070312 C 143.011719 118.855469 143.210938 121.433594 144.890625 123.019531 C 146.667969 124.605469 149.238281 124.410156 150.820312 122.625 Z M 145.976562 119.746094 C 145.976562 119.648438 145.976562 119.648438 145.976562 119.550781 C 145.976562 119.449219 146.074219 119.351562 146.074219 119.152344 L 146.175781 118.953125 L 146.273438 118.757812 C 146.371094 118.65625 146.472656 118.558594 146.570312 118.457031 L 146.667969 118.457031 C 146.667969 118.457031 146.667969 118.457031 146.769531 118.457031 C 146.867188 118.359375 147.0625 118.359375 147.164062 118.261719 C 147.164062 118.261719 146.867188 118.359375 147.0625 118.261719 L 147.261719 118.160156 L 147.460938 118.160156 C 147.460938 118.160156 147.460938 118.160156 147.558594 118.160156 C 147.558594 118.160156 147.65625 118.160156 147.65625 118.160156 L 147.855469 118.160156 L 148.347656 118.261719 C 148.546875 118.359375 148.546875 118.359375 148.546875 118.359375 C 148.546875 118.359375 148.644531 118.359375 148.644531 118.457031 C 148.644531 118.457031 148.644531 118.457031 148.746094 118.558594 L 149.042969 118.855469 C 149.042969 118.953125 149.140625 118.953125 149.140625 119.054688 L 149.238281 119.253906 C 149.335938 119.449219 149.335938 119.550781 149.335938 119.648438 C 149.335938 119.648438 149.335938 119.648438 149.335938 119.746094 C 149.335938 119.746094 149.335938 119.746094 149.335938 119.847656 C 149.335938 119.945312 149.335938 119.945312 149.335938 120.046875 C 149.335938 120.144531 149.238281 120.34375 149.238281 120.441406 C 149.238281 120.441406 149.238281 120.542969 149.238281 120.542969 C 149.238281 120.542969 149.238281 120.542969 149.238281 120.640625 L 149.042969 121.035156 C 149.042969 121.035156 148.941406 121.136719 148.941406 121.136719 L 148.84375 121.234375 C 148.746094 121.335938 148.746094 121.335938 148.84375 121.234375 C 148.746094 121.335938 148.644531 121.335938 148.644531 121.433594 L 148.546875 121.53125 L 147.953125 121.632812 C 147.855469 121.632812 147.855469 121.632812 147.757812 121.632812 L 147.0625 121.632812 L 146.867188 121.53125 C 146.667969 121.433594 146.964844 121.53125 146.964844 121.53125 C 146.964844 121.53125 146.667969 121.335938 146.667969 121.335938 C 146.667969 121.335938 146.570312 121.234375 146.472656 121.234375 C 146.472656 121.234375 146.175781 120.9375 146.175781 120.9375 L 146.074219 120.839844 L 146.175781 120.738281 L 146.175781 120.640625 C 146.175781 120.542969 146.074219 120.542969 146.175781 120.640625 C 146.175781 120.542969 146.074219 120.441406 146.074219 120.34375 C 146.074219 120.34375 146.074219 120.242188 146.074219 120.144531 C 145.976562 120.046875 145.976562 119.847656 145.976562 119.746094 Z M 145.976562 119.746094 " fill-opacity="1" fill-rule="nonzero"/><path fill="#5e17eb" d="M 145.976562 119.746094 C 146.074219 119.449219 145.976562 119.648438 145.976562 119.746094 Z M 145.976562 119.746094 " fill-opacity="1" fill-rule="nonzero"/><path fill="#5e17eb" d="M 161 122.820312 C 161.695312 122.027344 161.992188 121.136719 161.992188 120.046875 C 161.992188 119.847656 161.992188 119.746094 161.992188 119.550781 C 161.695312 117.960938 160.707031 116.671875 159.222656 116.078125 C 157.640625 115.484375 155.761719 115.980469 154.675781 117.269531 C 153.191406 119.054688 153.390625 121.632812 155.070312 123.21875 C 156.75 124.804688 159.421875 124.507812 161 122.820312 Z M 159.519531 119.746094 C 159.519531 119.746094 159.519531 119.847656 159.519531 119.746094 C 159.519531 119.847656 159.519531 119.847656 159.519531 119.847656 C 159.519531 119.847656 159.519531 119.847656 159.519531 119.746094 Z M 156.058594 119.746094 C 156.058594 119.746094 156.058594 119.648438 156.058594 119.550781 C 156.058594 119.449219 156.160156 119.253906 156.160156 119.152344 L 156.257812 118.953125 L 156.355469 118.757812 C 156.453125 118.65625 156.554688 118.558594 156.652344 118.457031 L 156.75 118.457031 C 156.652344 118.558594 156.75 118.457031 156.851562 118.457031 C 156.949219 118.359375 157.148438 118.359375 157.246094 118.261719 C 157.246094 118.261719 156.949219 118.359375 157.148438 118.261719 L 157.34375 118.160156 L 157.542969 118.160156 C 157.542969 118.160156 157.542969 118.160156 157.640625 118.160156 C 157.640625 118.160156 157.738281 118.160156 157.738281 118.160156 L 158.136719 118.160156 L 158.628906 118.261719 C 158.828125 118.359375 158.828125 118.359375 158.828125 118.359375 L 158.925781 118.457031 C 158.925781 118.457031 158.925781 118.457031 159.023438 118.558594 L 159.320312 118.855469 C 159.320312 118.953125 159.421875 118.953125 159.421875 119.054688 C 159.421875 119.152344 159.519531 119.152344 159.519531 119.253906 C 159.519531 119.351562 159.617188 119.449219 159.617188 119.550781 C 159.617188 119.648438 159.519531 119.746094 159.519531 119.847656 C 159.519531 119.945312 159.519531 119.945312 159.519531 120.046875 C 159.519531 120.144531 159.421875 120.34375 159.421875 120.441406 C 159.421875 120.441406 159.421875 120.441406 159.421875 120.542969 C 159.320312 120.640625 159.222656 120.839844 159.222656 120.9375 C 159.222656 120.9375 159.125 121.035156 159.125 121.035156 C 159.125 121.035156 159.023438 121.136719 159.023438 121.136719 C 158.925781 121.234375 158.925781 121.234375 159.023438 121.136719 C 158.925781 121.234375 158.828125 121.234375 158.828125 121.335938 L 158.726562 121.433594 L 157.9375 121.632812 C 157.839844 121.632812 157.839844 121.632812 157.738281 121.632812 L 157.34375 121.632812 L 157.148438 121.53125 L 156.949219 121.433594 C 156.75 121.433594 157.046875 121.433594 157.046875 121.433594 C 157.046875 121.433594 156.75 121.234375 156.75 121.234375 L 156.554688 121.136719 C 156.554688 121.136719 156.355469 120.9375 156.257812 120.839844 L 156.160156 120.640625 L 156.257812 120.542969 C 156.257812 120.441406 156.160156 120.242188 156.160156 120.144531 L 156.160156 119.945312 C 156.058594 119.945312 156.058594 119.847656 156.058594 119.746094 Z M 156.058594 119.746094 " fill-opacity="1" fill-rule="nonzero"/><path fill="#5e17eb" d="M 157.9375 121.632812 C 157.9375 121.53125 157.738281 121.632812 157.9375 121.632812 Z M 157.9375 121.632812 " fill-opacity="1" fill-rule="nonzero"/><path fill="#5e17eb" d="M 156.058594 119.746094 C 156.160156 119.449219 156.058594 119.648438 156.058594 119.746094 Z M 156.058594 119.746094 " fill-opacity="1" fill-rule="nonzero"/><path fill="#5e17eb" d="M 202.023438 149.992188 C 201.035156 148.804688 199.257812 150.589844 200.246094 151.777344 L 209.832031 162.785156 L 200.246094 173.792969 C 199.15625 174.984375 200.9375 176.769531 202.023438 175.578125 L 212.402344 163.679688 C 212.898438 163.183594 212.898438 162.390625 212.402344 161.894531 Z M 202.023438 149.992188 " fill-opacity="1" fill-rule="nonzero"/><path fill="#5e17eb" d="M 172.960938 149.992188 L 162.683594 161.894531 C 162.1875 162.390625 162.1875 163.183594 162.683594 163.679688 L 172.960938 175.578125 C 174.050781 176.769531 175.730469 174.984375 174.742188 173.792969 L 165.152344 162.785156 L 174.742188 151.777344 C 175.828125 150.589844 174.050781 148.804688 172.960938 149.992188 Z M 172.960938 149.992188 " fill-opacity="1" fill-rule="nonzero"/><path fill="#5e17eb" d="M 192.335938 150.191406 L 182.058594 171.015625 L 180.574219 173.992188 C 179.882812 175.378906 181.957031 176.667969 182.75 175.28125 L 193.128906 154.457031 L 194.609375 151.480469 C 195.105469 150.09375 193.027344 148.804688 192.335938 150.191406 Z M 192.335938 150.191406 " fill-opacity="1" fill-rule="nonzero"/></svg>